<mxfile host="app.diagrams.net" modified="2021-10-11T13:04:52.946Z" agent="5.0 (Windows NT 10.0; Win64; x64) AppleWebKit/537.36 (KHTML, like Gecko) Chrome/94.0.4606.71 Safari/537.36" etag="CcUVeqWMQtgT3aqtVNFS" version="15.5.0" type="github">
  <diagram id="nuyMmdyyq0KDwkIIG8Ej" name="Page-1">
    <mxGraphModel dx="1038" dy="491" grid="1" gridSize="10" guides="1" tooltips="1" connect="1" arrows="1" fold="1" page="1" pageScale="1" pageWidth="827" pageHeight="1169" math="0" shadow="0">
      <root>
        <mxCell id="0" />
        <mxCell id="1" parent="0" />
        <mxCell id="GiqYHeBIECpPeCUvQW0k-1" value="&lt;font style=&quot;font-size: 18px&quot;&gt;开始&lt;/font&gt;" style="rounded=1;whiteSpace=wrap;html=1;" vertex="1" parent="1">
          <mxGeometry x="474" y="200" width="80" height="50" as="geometry" />
        </mxCell>
        <mxCell id="GiqYHeBIECpPeCUvQW0k-2" value="结束" style="rounded=1;whiteSpace=wrap;html=1;fontSize=18;" vertex="1" parent="1">
          <mxGeometry x="630" y="790" width="80" height="50" as="geometry" />
        </mxCell>
        <mxCell id="GiqYHeBIECpPeCUvQW0k-3" value="选择模块" style="rounded=0;whiteSpace=wrap;html=1;fontSize=18;" vertex="1" parent="1">
          <mxGeometry x="465" y="280" width="96" height="40" as="geometry" />
        </mxCell>
        <mxCell id="GiqYHeBIECpPeCUvQW0k-4" value="&lt;span&gt;是否为Transformer模型&lt;/span&gt;" style="rhombus;whiteSpace=wrap;html=1;fontSize=18;" vertex="1" parent="1">
          <mxGeometry x="392.25" y="362" width="243.5" height="80" as="geometry" />
        </mxCell>
        <mxCell id="GiqYHeBIECpPeCUvQW0k-7" value="" style="endArrow=classic;html=1;rounded=0;fontSize=18;edgeStyle=orthogonalEdgeStyle;exitX=1;exitY=0.5;exitDx=0;exitDy=0;entryX=0.5;entryY=0;entryDx=0;entryDy=0;" edge="1" parent="1" source="GiqYHeBIECpPeCUvQW0k-4" target="GiqYHeBIECpPeCUvQW0k-19">
          <mxGeometry width="50" height="50" relative="1" as="geometry">
            <mxPoint x="640" y="460" as="sourcePoint" />
            <mxPoint x="670" y="490" as="targetPoint" />
            <Array as="points">
              <mxPoint x="670" y="402" />
            </Array>
          </mxGeometry>
        </mxCell>
        <mxCell id="GiqYHeBIECpPeCUvQW0k-8" value="" style="endArrow=classic;html=1;rounded=0;fontSize=18;edgeStyle=orthogonalEdgeStyle;exitX=0;exitY=0.5;exitDx=0;exitDy=0;" edge="1" parent="1">
          <mxGeometry width="50" height="50" relative="1" as="geometry">
            <mxPoint x="394.25" y="402" as="sourcePoint" />
            <mxPoint x="392" y="530" as="targetPoint" />
            <Array as="points">
              <mxPoint x="392" y="402" />
            </Array>
          </mxGeometry>
        </mxCell>
        <mxCell id="GiqYHeBIECpPeCUvQW0k-9" value="" style="endArrow=classic;html=1;rounded=0;fontSize=18;edgeStyle=orthogonalEdgeStyle;exitX=1;exitY=0.5;exitDx=0;exitDy=0;" edge="1" parent="1" source="GiqYHeBIECpPeCUvQW0k-22">
          <mxGeometry width="50" height="50" relative="1" as="geometry">
            <mxPoint x="573" y="692" as="sourcePoint" />
            <mxPoint x="609" y="692" as="targetPoint" />
            <Array as="points" />
          </mxGeometry>
        </mxCell>
        <mxCell id="GiqYHeBIECpPeCUvQW0k-10" value="" style="endArrow=classic;html=1;rounded=0;fontSize=18;edgeStyle=orthogonalEdgeStyle;entryX=0;entryY=0.5;entryDx=0;entryDy=0;exitX=0;exitY=0.5;exitDx=0;exitDy=0;" edge="1" parent="1">
          <mxGeometry width="50" height="50" relative="1" as="geometry">
            <mxPoint x="146.75" y="694" as="sourcePoint" />
            <mxPoint x="463" y="302" as="targetPoint" />
            <Array as="points">
              <mxPoint x="147" y="692" />
              <mxPoint x="98" y="692" />
              <mxPoint x="98" y="302" />
            </Array>
          </mxGeometry>
        </mxCell>
        <mxCell id="GiqYHeBIECpPeCUvQW0k-11" value="" style="endArrow=classic;html=1;rounded=0;fontSize=18;edgeStyle=orthogonalEdgeStyle;" edge="1" parent="1">
          <mxGeometry width="50" height="50" relative="1" as="geometry">
            <mxPoint x="514" y="321" as="sourcePoint" />
            <mxPoint x="514" y="360" as="targetPoint" />
            <Array as="points">
              <mxPoint x="514" y="321" />
            </Array>
          </mxGeometry>
        </mxCell>
        <mxCell id="GiqYHeBIECpPeCUvQW0k-12" value="" style="endArrow=classic;html=1;rounded=0;fontSize=18;edgeStyle=orthogonalEdgeStyle;entryX=0.5;entryY=0;entryDx=0;entryDy=0;" edge="1" parent="1" target="GiqYHeBIECpPeCUvQW0k-3">
          <mxGeometry width="50" height="50" relative="1" as="geometry">
            <mxPoint x="514" y="250" as="sourcePoint" />
            <mxPoint x="539" y="200" as="targetPoint" />
            <Array as="points">
              <mxPoint x="514" y="250" />
            </Array>
          </mxGeometry>
        </mxCell>
        <mxCell id="GiqYHeBIECpPeCUvQW0k-13" value="" style="endArrow=classic;html=1;rounded=0;fontSize=18;edgeStyle=orthogonalEdgeStyle;entryX=0.5;entryY=0;entryDx=0;entryDy=0;exitX=0.5;exitY=1;exitDx=0;exitDy=0;startArrow=none;" edge="1" parent="1" source="GiqYHeBIECpPeCUvQW0k-19" target="GiqYHeBIECpPeCUvQW0k-2">
          <mxGeometry width="50" height="50" relative="1" as="geometry">
            <mxPoint x="670" y="620" as="sourcePoint" />
            <mxPoint x="580" y="440" as="targetPoint" />
          </mxGeometry>
        </mxCell>
        <mxCell id="GiqYHeBIECpPeCUvQW0k-14" value="否" style="text;html=1;strokeColor=none;fillColor=none;align=center;verticalAlign=middle;whiteSpace=wrap;rounded=0;fontSize=18;" vertex="1" parent="1">
          <mxGeometry x="340" y="410" width="60" height="30" as="geometry" />
        </mxCell>
        <mxCell id="GiqYHeBIECpPeCUvQW0k-15" value="是" style="text;html=1;strokeColor=none;fillColor=none;align=center;verticalAlign=middle;whiteSpace=wrap;rounded=0;fontSize=18;" vertex="1" parent="1">
          <mxGeometry x="620" y="370" width="60" height="30" as="geometry" />
        </mxCell>
        <mxCell id="GiqYHeBIECpPeCUvQW0k-16" value="是" style="text;html=1;strokeColor=none;fillColor=none;align=center;verticalAlign=middle;whiteSpace=wrap;rounded=0;fontSize=18;" vertex="1" parent="1">
          <mxGeometry x="392.25" y="660" width="60" height="30" as="geometry" />
        </mxCell>
        <mxCell id="GiqYHeBIECpPeCUvQW0k-17" value="否" style="text;html=1;strokeColor=none;fillColor=none;align=center;verticalAlign=middle;whiteSpace=wrap;rounded=0;fontSize=18;" vertex="1" parent="1">
          <mxGeometry x="210" y="580" width="60" height="30" as="geometry" />
        </mxCell>
        <mxCell id="GiqYHeBIECpPeCUvQW0k-21" value="&lt;span&gt;是否为Transformer-BT模型&lt;/span&gt;" style="rhombus;whiteSpace=wrap;html=1;fontSize=18;" vertex="1" parent="1">
          <mxGeometry x="270" y="530" width="243.5" height="80" as="geometry" />
        </mxCell>
        <mxCell id="GiqYHeBIECpPeCUvQW0k-22" value="&lt;span&gt;是否为Transformer-EDA模型&lt;/span&gt;" style="rhombus;whiteSpace=wrap;html=1;fontSize=18;" vertex="1" parent="1">
          <mxGeometry x="148.75" y="652" width="243.5" height="80" as="geometry" />
        </mxCell>
        <mxCell id="GiqYHeBIECpPeCUvQW0k-19" value="&lt;span style=&quot;font-size: 18px&quot;&gt;服务器调用相应模型&lt;/span&gt;" style="rounded=0;whiteSpace=wrap;html=1;" vertex="1" parent="1">
          <mxGeometry x="610" y="672" width="120" height="40" as="geometry" />
        </mxCell>
        <mxCell id="GiqYHeBIECpPeCUvQW0k-24" value="" style="endArrow=none;html=1;rounded=0;fontSize=18;edgeStyle=orthogonalEdgeStyle;entryX=0.5;entryY=0;entryDx=0;entryDy=0;exitX=0.5;exitY=1;exitDx=0;exitDy=0;" edge="1" parent="1" target="GiqYHeBIECpPeCUvQW0k-19">
          <mxGeometry width="50" height="50" relative="1" as="geometry">
            <mxPoint x="670" y="620" as="sourcePoint" />
            <mxPoint x="710" y="790" as="targetPoint" />
          </mxGeometry>
        </mxCell>
        <mxCell id="GiqYHeBIECpPeCUvQW0k-25" value="" style="endArrow=classic;html=1;rounded=0;edgeStyle=orthogonalEdgeStyle;exitX=1;exitY=0.5;exitDx=0;exitDy=0;" edge="1" parent="1">
          <mxGeometry width="50" height="50" relative="1" as="geometry">
            <mxPoint x="515.5" y="570" as="sourcePoint" />
            <mxPoint x="670" y="570" as="targetPoint" />
            <Array as="points" />
          </mxGeometry>
        </mxCell>
        <mxCell id="GiqYHeBIECpPeCUvQW0k-26" value="" style="endArrow=classic;html=1;rounded=0;edgeStyle=orthogonalEdgeStyle;exitX=0;exitY=0.5;exitDx=0;exitDy=0;entryX=0.5;entryY=0;entryDx=0;entryDy=0;" edge="1" parent="1">
          <mxGeometry width="50" height="50" relative="1" as="geometry">
            <mxPoint x="269" y="570" as="sourcePoint" />
            <mxPoint x="269.5" y="652" as="targetPoint" />
            <Array as="points">
              <mxPoint x="270" y="570" />
              <mxPoint x="270" y="631" />
            </Array>
          </mxGeometry>
        </mxCell>
        <mxCell id="GiqYHeBIECpPeCUvQW0k-27" value="是" style="text;html=1;strokeColor=none;fillColor=none;align=center;verticalAlign=middle;whiteSpace=wrap;rounded=0;fontSize=18;" vertex="1" parent="1">
          <mxGeometry x="510" y="530" width="60" height="30" as="geometry" />
        </mxCell>
        <mxCell id="GiqYHeBIECpPeCUvQW0k-28" value="否" style="text;html=1;strokeColor=none;fillColor=none;align=center;verticalAlign=middle;whiteSpace=wrap;rounded=0;fontSize=18;" vertex="1" parent="1">
          <mxGeometry x="88.75" y="660" width="60" height="30" as="geometry" />
        </mxCell>
      </root>
    </mxGraphModel>
  </diagram>
</mxfile>
